<svg height="512pt" viewBox="-44 0 512 512.001" width="512pt" xmlns="http://www.w3.org/2000/svg"><path d="m108.59375 136.9375s-41.441406-67.300781-14.75-118.71875c50.6875-28.046875 108.824219 7.8125 108.824219 7.8125zm0 0" fill="#e9a577"/><path d="m87.226562 268.167969c7.371094 18.886719 10.28125 36.679687 12.867188 52.554687 3.03125 18.601563 5.433594 33.28125 14.007812 44.59375 3.601563 4.746094 14.558594 19.191406 59.5 30.171875 12.234376 2.992188 19.738282 15.335938 16.746094 27.574219-2.554687 10.421875-11.871094 17.398438-22.140625 17.398438-1.792969 0-3.617187-.214844-5.433593-.648438-41.390626-10.121094-68.398438-25.03125-85.015626-46.917969-15.429687-20.347656-19.121093-42.957031-22.6875-64.824219-1.792968-11.039062-3.558593-21.84375-6.722656-32.652343l12.71875-33.214844zm0 0" fill="#e9a577"/><path d="m87.226562 268.167969c-12.304687 12.722656-26.417968 21.421875-38.878906 27.25-5.25-17.984375-14.363281-35.949219-33.929687-54.957031-9.035157-8.777344-9.246094-23.214844-.464844-32.246094 8.777344-9.042969 23.222656-9.246094 32.257813-.46875 21.296874 20.691406 33.492187 41.128906 41.015624 60.421875zm0 0" fill="#e9e9e9"/><path d="m173.601562 395.488281c-26.980468-6.589843-41.703124-14.429687-49.949218-20.671875-2.722656 11.195313-4.457032 23.347656-4.125 36.46875.121094 4.828125.523437 9.617188 1.191406 14.382813 11.996094 5.527343 25.929688 10.199219 42.054688 14.140625 1.816406.4375 3.640624.652344 5.433593.652344 10.269531 0 19.585938-6.976563 22.140625-17.398438 2.992188-12.234375-4.511718-24.582031-16.746094-27.574219zm0 0" fill="#e48949"/><path d="m333.140625 337.765625h-164.660156c-14.796875 38.863281-41.941407 86.511719 18.914062 154.34375 7.066407 7.875 17.148438 12.390625 27.730469 12.390625h71.375c10.582031 0 20.660156-4.515625 27.726562-12.390625 60.855469-67.832031 33.710938-115.480469 18.914063-154.34375zm0 0" fill="#e9e9e9"/><path d="m393.027344 136.9375s41.441406-67.300781 14.75-118.71875c-50.6875-28.046875-108.824219 7.8125-108.824219 7.8125zm0 0" fill="#e9a577"/><path d="m408.609375 102.476562c-16.5-38.539062-46.71875-69.855468-84.484375-87.78125-15.234375 5.210938-25.171875 11.335938-25.171875 11.335938l94.074219 110.90625s8.71875-14.167969 15.582031-34.460938zm0 0" fill="#e48949"/><path d="m93.011719 102.476562c6.863281 20.292969 15.582031 34.460938 15.582031 34.460938l94.074219-110.90625s-9.9375-6.125-25.171875-11.332031c-37.765625 17.921875-67.984375 49.238281-84.484375 87.777343zm0 0" fill="#e48949"/><path d="m386.378906 53.542969c-.714844-7.484375-6.460937-13.527344-13.902344-14.632813-3.125-.464844-6.246093-.671875-9.324218-.671875-24.261719 0-45.933594 12.804688-46.226563 12.988281l52.167969 67.121094c6.625-10.898437 19.691406-39.578125 17.285156-64.804687zm0 0" fill="#e9e9e9"/><path d="m115.246094 53.542969c.710937-7.484375 6.460937-13.527344 13.898437-14.632813 3.125-.464844 6.246094-.671875 9.324219-.671875 24.261719 0 45.9375 12.804688 46.226562 12.988281l-52.167968 67.121094c-6.625-10.898437-19.691406-39.578125-17.28125-64.804687zm0 0" fill="#e9e9e9"/><path d="m333.140625 337.765625c-25.496094 12.5-53.730469 19.058594-82.328125 19.058594-28.601562 0-56.835938-6.558594-82.332031-19.058594 4.949219-13 8.519531-25.023437 6.945312-36.476563h150.769531c-1.570312 11.453126 1.996094 23.476563 6.945313 36.476563zm0 0" fill="#e08778"/><path d="m115.128906 64.914062c1.445313 21.964844 11.753906 44.152344 17.398438 53.433594l52.167968-67.125c-.28125-.171875-20.613281-12.1875-43.933593-12.945312-9.464844 7.933594-18.0625 16.867187-25.632813 26.636718zm0 0" fill="#d3d2d8"/><path d="m386.492188 64.914062c-7.570313-9.769531-16.167969-18.703124-25.632813-26.636718-23.320313.757812-43.652344 12.773437-43.933594 12.949218l52.167969 67.121094c5.644531-9.28125 15.953125-31.46875 17.398438-53.433594zm0 0" fill="#d3d2d8"/><path d="m175.425781 301.289062c-45.519531-26.144531-76.175781-75.242187-76.175781-131.507812 0-83.710938 67.851562-151.5625 151.558594-151.5625 83.710937 0 151.5625 67.851562 151.5625 151.5625 0 56.265625-30.65625 105.359375-76.175782 131.507812zm0 0" fill="#e9a577"/><path d="m326.195312 301.289062c-.011718 0-.011718.007813-.011718.007813-22.199219 12.753906-47.929688 20.042969-75.375 20.042969-27.441406 0-53.171875-7.289063-75.375-20.042969 0 0 0-.007813-.007813-.007813-45.570312-64.546874-7.300781-97.464843 14.558594-109.84375 7.277344-4.125 13.613281-9.753906 18.265625-16.699218 6.550781-9.78125 19.558594-22.707032 42.558594-22.707032 23.003906 0 36.011718 12.925782 42.5625 22.707032 4.652344 6.945312 10.988281 12.574218 18.265625 16.699218 21.859375 12.378907 60.128906 45.292969 14.558593 109.84375zm0 0" fill="#e9e9e9"/><path d="m270.613281 367.972656c0 10.9375-8.867187 19.804688-19.804687 19.804688-10.933594 0-19.800782-8.867188-19.800782-19.804688 0-10.933594 8.867188-19.800781 19.800782-19.800781 10.9375 0 19.804687 8.867187 19.804687 19.800781zm0 0" fill="#e1ba68"/><path d="m175.359375 154.714844v13.308594c0 4.144531 3.359375 7.5 7.5 7.5 4.144531 0 7.5-3.355469 7.5-7.5v-13.308594c0-4.140625-3.355469-7.5-7.5-7.5-4.140625 0-7.5 3.359375-7.5 7.5zm0 0"/><path d="m311.226562 154.714844v13.308594c0 4.144531 3.359376 7.5 7.5 7.5 4.144532 0 7.5-3.355469 7.5-7.5v-13.308594c0-4.140625-3.355468-7.5-7.5-7.5-4.140624 0-7.5 3.359375-7.5 7.5zm0 0"/><path d="m234.210938 185.496094c5.039062 2.171875 10.660156 3.382812 16.582031 3.382812 5.925781 0 11.542969-1.210937 16.585937-3.382812 5.289063-2.28125 3.675782-10.171875-2.085937-10.171875h-29c-5.761719 0-7.375 7.890625-2.082031 10.171875zm0 0"/><path d="m235.761719 218.425781c5.433593 0 10.644531-1.546875 15.03125-4.359375 4.386719 2.8125 9.597656 4.359375 15.03125 4.359375 8.023437 0 15.558593-3.359375 20.679687-9.214843 2.726563-3.117188 2.40625-7.855469-.710937-10.582032-3.121094-2.726562-7.855469-2.410156-10.582031.710938-2.273438 2.59375-5.691407 4.085937-9.386719 4.085937-3.695313 0-7.113281-1.492187-9.386719-4.085937-2.882812-3.304688-8.410156-3.300782-11.292969 0-2.269531 2.59375-5.691406 4.085937-9.382812 4.085937-3.695313 0-7.117188-1.492187-9.386719-4.085937-2.726562-3.121094-7.460938-3.4375-10.582031-.710938-3.121094 2.722656-3.4375 7.460938-.710938 10.582032 5.121094 5.855468 12.65625 9.214843 20.679688 9.214843zm0 0"/><path d="m414.417969 14.765625c-.683594-1.3125-1.734375-2.394531-3.027344-3.109375-13.976563-7.734375-29.6875-11.65625-46.691406-11.65625-30.839844 0-57.375 12.84375-66.613281 17.898438-14.945313-4.664063-30.832032-7.179688-47.292969-7.179688-16.480469 0-32.386719 2.523438-47.347657 7.195312-9.625-5.28125-35.925781-17.914062-66.558593-17.914062-17.003907 0-32.710938 3.921875-46.691407 11.65625-1.292968.714844-2.347656 1.796875-3.027343 3.109375-21.984375 42.347656-1.789063 93.359375 9.453125 115.839844-3.1875 12.539062-4.886719 25.660156-4.886719 39.175781 0 55.480469 29.226563 107.203125 76.53125 135.976562.285156 8.621094-2.523437 18.082032-6.8125 29.339844-1.554687 4.085938-17.566406 42.757813-15.59375 43.601563-18.054687-7.710938-23.5625-14.964844-25.796875-17.910157-7.464844-9.847656-9.726562-23.714843-12.585938-41.273437-2.625-16.121094-5.601562-34.394531-13.28125-54.074219-9.085937-23.308594-23.078124-43.941406-42.773437-63.074218-11.859375-11.519532-31.363281-11.230469-42.867187.617187-11.644532 11.980469-11.367188 31.207031.621093 42.855469 16.285157 15.820312 26.140625 31.757812 31.957031 51.683594 3.050782 10.417968 4.734376 20.78125 6.519532 31.757812 2.964844 18.160156 6.027344 36.941406 15.742187 55.074219 1.953125 3.648437 6.5 5.023437 10.152344 3.066406 3.652344-1.953125 5.023437-6.5 3.070313-10.152344-8.535157-15.925781-11.398438-33.457031-14.160157-50.402343-1.460937-8.96875-2.957031-18.1875-5.273437-27.449219.027344-.015625.058594-.03125.089844-.046875 9.378906-4.917969 18.429687-10.820313 26.546874-17.746094.039063-.035156.082032-.070312.125-.105469 4.484376 14.347657 6.714844 28.042969 8.726563 40.410157 3.070313 18.835937 5.71875 35.101562 15.4375 47.921874 3.039063 4.007813 10.753906 14.179688 34.824219 23.871094-.03125.261719-.054688.515625-.085938.777344-1.34375 10.644531-1.125 21.511719.792969 32.074219-21.820313-7.214844-38.433594-16.367188-50.558594-27.8125-3.011719-2.84375-7.757812-2.707031-10.601562.304687-2.84375 3.011719-2.707031 7.757813.304687 10.601563 15.460938 14.597656 36.910156 25.738281 65.441406 34.015625 6.3125 17.773437 17.4375 35.457031 33.566407 53.433594 8.480469 9.453124 20.613281 14.875 33.324219 14.882812h71.386718c12.675782-.003906 24.808594-5.429688 33.289063-14.882812 26.042969-29.023438 39.058593-57.285157 39.792969-86.394532.675781-26.75-10.140626-51.164062-19.453126-75.625-4.289062-11.261718-7.097656-20.726562-6.808593-29.351562 27.136719-16.480469 48.484375-40.308594 61.859375-69.167969 1.742187-3.757813.105468-8.21875-3.652344-9.960937-3.757812-1.738282-8.21875-.105469-9.957031 3.652343-7.769531 16.769531-18.878907 32.003907-32.386719 44.671875.054688-.140625.101562-.28125.15625-.421875 6.1875-16.304687 7.886719-34.574219 1.582031-51.125-6.449219-16.796875-20.203125-29.742187-35.605469-38.472656-9.789062-5.546875-15.128906-15.152344-22.753906-23.015625-25.460937-26.242188-70.375-21.488281-90.5625 8.667969-3.835937 5.726562-9.277344 10.6875-15.734375 14.347656-14.449219 8.183594-32.808593 22.992187-38.203125 47.070313-3.179687 14.191406-.902344 29.101562 4.191406 42.5625.054688.144531.105469.292968.160157.4375-28.734375-26.949219-45.683594-64.992188-45.683594-105.210938 0-13.605469 1.894531-26.777344 5.4375-39.265625.039063-.140625.082031-.28125.125-.425781 17.273437-60.195313 72.824219-104.367188 138.496094-104.367188 65.675781 0 121.222656 44.175782 138.5 104.371094.039062.140625.082031.28125.121093.421875 3.542969 12.488281 5.4375 25.660156 5.4375 39.265625 0 11.339844-1.324218 22.648438-3.941406 33.605469-.964844 4.027343 1.519532 8.074219 5.550782 9.035156 4.027343.960937 8.074218-1.523437 9.035156-5.550781 2.890625-12.097656 4.355468-24.574219 4.355468-37.089844 0-13.515625-1.699218-26.636719-4.886718-39.171875 11.242187-22.484375 31.4375-73.496094 9.453125-115.84375zm-394.789063 220.316406c-6.054687-5.882812-6.199218-15.589843-.316406-21.644531 5.820312-5.988281 15.679688-6.117188 21.652344-.3125 16.824218 16.34375 29.09375 33.796875 37.402344 53.226562-.082032.074219-.160157.15625-.242188.234376-5.285156 4.972656-11.0625 9.429687-17.171875 13.34375-.613281.390624-8.253906 4.773437-8.230469 4.839843-6.789062-18.523437-17.453125-34.488281-33.09375-49.6875zm147.898438 37.300781c-4.964844-11.753906-7.636719-24.558593-4.824219-37.113281 3.046875-13.601562 11.789063-23.605469 20.871094-30.621093 10.832031-8.371094 22.898437-13.800782 30.894531-25.730469 8.171875-12.195313 21.660156-19.378907 36.324219-19.378907 14.628906 0 28.191406 7.226563 36.328125 19.382813 5.957031 8.894531 14.023437 14.90625 23.050781 20.363281 11.390625 6.886719 24.785156 18.441406 28.714844 35.984375 2.398437 10.710938.722656 21.847657-2.882813 32.085938-3.496094 9.949219-8.773437 19.175781-14.726562 27.84375-.089844.125-.179688.253906-.265625.378906-7.234375 4.046875-14.789063 7.441406-22.613281 10.175781-15.125 5.28125-31.429688 8.082032-47.605469 8.085938-24.441407.003906-48.878907-6.324219-70.214844-18.257813-5.042969-7.320312-9.535156-15.023437-13.050781-23.199219zm155.34375 61.867188c-16.4375 7.210938-33.949219 11.898438-51.78125 13.914062-.371094.042969-1.28125.144532-1.367188.152344-.125-.121094-.578125-.535156-.675781-.625-4.273437-3.875-9.617187-6.273437-15.398437-6.871094-1.902344-.195312-3.816407-.195312-5.71875.003907-5.773438.597656-11.113282 2.992187-15.382813 6.859375-.105469.097656-.5625.515625-.679687.632812-.085938-.007812-.175782-.015625-.261719-.027344-8.664063-.933593-17.261719-2.480468-25.703125-4.652343-9.601563-2.46875-18.976563-5.738281-28.035156-9.769531 2.46875-7.132813 4.265624-13.765626 5.023437-20.214844 17.324219 8.171875 36.140625 13.144531 55.234375 14.667968 9.074219.726563 18.1875.667969 27.253906-.164062 18.203125-1.667969 36.601563-6.617188 53.3125-14.503906.761719 6.449218 2.558594 13.082031 5.027344 20.214844-.285156.125-.566406.257812-.847656.382812zm-83.785156 37.363281c-2.558594-7.695312 3.695312-15.941406 11.710937-15.941406 6.574219 0 12.296875 5.714844 12.296875 12.300781 0 6.640625-5.585938 12.304688-12.300781 12.304688-5.300781 0-10.074219-3.757813-11.707031-8.664063zm69.539062 115.488281c-3.167969 3.53125-7.101562 6.21875-11.4375 7.894532 4.699219-16.679688 12.300781-48.183594 12.300781-77.347656 0-4.140626-3.355469-7.5-7.5-7.5-4.140625 0-7.5 3.359374-7.5 7.5 0 31.144531-9.636719 66.402343-13.523437 79.351562h-22.671875v-79.351562c0-4.140626-3.359375-7.5-7.5-7.5-4.144531 0-7.5 3.359374-7.5 7.5v79.351562h-22.671875c-3.886719-12.949219-13.523438-48.207031-13.523438-79.351562 0-4.140626-3.355468-7.5-7.5-7.5-4.140625 0-7.5 3.359374-7.5 7.5 0 29.164062 7.605469 60.667968 12.300782 77.347656-4.335938-1.675782-8.269532-4.363282-11.4375-7.894532-17.121094-19.082031-26.914063-36.332031-31.839844-52.183593-4.558594-14.65625-5.222656-29.660157-2.449219-44.695313 2.601563-14.121094 7.820313-27.175781 12.8125-39.664062.355469-.886719.707031-1.765625 1.054687-2.632813.101563.042969.207032.082031.308594.128907 16.039063 7.015624 33.03125 11.832031 50.363282 14.292968.277343.039063.554687.089844.835937.128906-.257813 1.25-.421875 2.519532-.5 3.804688-.949219 15.503906 11.726563 28.992188 27.246094 28.992188 14.800781 0 27.300781-12.523438 27.300781-27.300782 0-1.839844-.183594-3.691406-.554688-5.492187.292969-.042969.582032-.09375.871094-.136719 17.332032-2.46875 34.28125-7.292969 50.324219-14.289062.105469-.042969.207031-.085938.3125-.128907.34375.867188.695313 1.746094 1.050781 2.636719 14.601563 36.507812 31.148438 77.886719-21.472656 136.539062zm-185.933594-432.84375c.390625-4.066406 3.488282-7.328124 7.535156-7.929687 2.632813-.390625 5.398438-.589844 8.222657-.589844 3.691406 0 7.515625.328125 11.449219.980469-9.757813 7.992188-18.527344 17.113281-26.117188 27.175781-1.273438-7.109375-1.652344-13.746093-1.089844-19.636719zm-23.210937-30.558593c11.226562-5.773438 23.796875-8.699219 37.40625-8.699219 18.621093 0 35.800781 5.476562 47.300781 10.285156-6.324219 2.910156-12.40625 6.21875-18.230469 9.882813-13.433593-4.132813-26.335937-5.402344-37.9375-3.675781-10.882812 1.617187-19.214843 10.394531-20.257812 21.339843-1.089844 11.394531.519531 24.230469 4.773437 38.191407-3.390625 5.964843-6.417968 12.167968-9.035156 18.589843-18.148438-44.347656-9.933594-73.316406-4.019531-85.914062zm278.324219 50.195312c-7.589844-10.0625-16.359376-19.179687-26.117188-27.175781 6.945312-1.148438 13.601562-1.292969 19.667969-.390625 4.050781.601563 7.148437 3.863281 7.535156 7.929687.566406 5.890626.1875 12.527344-1.085937 19.636719zm20.277343 35.71875c-2.613281-6.421875-5.640625-12.625-9.03125-18.589843 4.253907-13.960938 5.863281-26.796876 4.773438-38.191407-1.042969-10.945312-9.375-19.722656-20.261719-21.339843-11.597656-1.726563-24.503906-.457032-37.933594 3.675781-5.824218-3.664063-11.90625-6.976563-18.230468-9.882813 11.5-4.808594 28.675781-10.285156 47.300781-10.285156 13.609375 0 26.179687 2.925781 37.40625 8.699219 5.914062 12.597656 14.128906 41.566406-4.023438 85.914062zm0 0"/></svg>