<svg height="512pt" viewBox="-65 0 512 512" width="512pt" xmlns="http://www.w3.org/2000/svg"><path d="m319.324219 309.601562-128.5625-64.328124-128.5625 64.328124c-22.496094 38.289063-45.71875 108.839844 25.515625 179.175782 10.226562 10.101562 24.0625 15.722656 38.4375 15.722656h129.214844c14.375 0 28.210937-5.621094 38.4375-15.722656 71.238281-70.335938 48.011718-140.886719 25.519531-179.175782zm0 0" fill="#59636f"/><path d="m319.324219 309.601562c-12.570313 6.472657-26.878907 11.691407-42.898438 15.621094-24.292969 5.953125-53.117187 8.976563-85.664062 8.976563s-61.371094-3.023438-85.664063-8.976563c-16.019531-3.929687-30.328125-9.152344-42.898437-15.621094 10.757812-18.320312 21.34375-29.25 21.34375-29.25h214.4375s10.585937 10.929688 21.34375 29.25zm0 0" fill="#e1738c"/><path d="m99.445312 34.832031s-27.300781-24.117187-69.765624-17.921875c-9.839844 1.4375-17.652344 8.984375-19.59375 18.742188-4.796876 24.066406-7.269532 72.792968 34.457031 118.402344zm0 0" fill="#424952"/><path d="m282.074219 34.832031s27.304687-24.117187 69.765625-17.921875c9.84375 1.4375 17.652344 8.984375 19.597656 18.742188 4.796875 24.066406 7.265625 72.792968-34.457031 118.402344zm0 0" fill="#424952"/><path d="m308.765625 31.71875c-2.71875-2.746094-5.535156-5.363281-8.4375-7.855469-11.683594 5.179688-18.253906 10.96875-18.253906 10.96875l54.902343 119.222657c7.261719-7.9375 13.179688-15.96875 17.984376-23.945313-3.804688-25.625-14.75-66.652344-46.195313-98.390625zm0 0" fill="#383d43"/><path d="m26.558594 130.109375c4.804687 7.980469 10.726562 16.007813 17.984375 23.945313l54.902343-119.222657s-6.566406-5.789062-18.25-10.964843c-2.902343 2.488281-5.714843 5.109374-8.433593 7.851562-31.449219 31.738281-42.398438 72.765625-46.203125 98.390625zm0 0" fill="#383d43"/><path d="m48.664062 49.484375h-.078124c-4.601563.003906-8.445313 3.550781-8.925782 8.128906-2.230468 21.289063.71875 54.25 29.496094 85.703125l18.132812-81.292968c-.695312-.578126-15.347656-12.539063-38.625-12.539063zm0 0" fill="#e9e9e9"/><path d="m332.859375 49.484375h.074219c4.605468.003906 8.445312 3.550781 8.925781 8.128906 2.230469 21.289063-.714844 54.25-29.496094 85.703125l-18.128906-81.292968c.695313-.578126 15.347656-12.539063 38.625-12.539063zm0 0" fill="#e9e9e9"/><path d="m324.140625 50.054688c-18.167969 2.382812-29.304687 11.464843-29.90625 11.96875l18.132813 81.292968c19.351562-21.15625 27.015624-42.984375 29.285156-61.492187-4.433594-10.566407-10.148438-21.386719-17.511719-31.769531zm0 0" fill="#d3d2d8"/><path d="m39.871094 81.824219c2.269531 18.507812 9.933594 40.335937 29.285156 61.492187l18.128906-81.292968c-.601562-.503907-11.734375-9.585938-29.902344-11.96875-7.367187 10.382812-13.078124 21.203124-17.511718 31.769531zm0 0" fill="#d3d2d8"/><path d="m336.980469 154.058594s1.355469-146.558594-146.21875-146.558594-146.222657 146.558594-146.222657 146.558594-54.398437 106.3125 69.035157 136.570312c20.476562 5.019532 45.851562 7.949219 77.1875 7.949219 31.335937 0 56.707031-2.929687 77.1875-7.949219 123.433593-30.257812 69.03125-136.570312 69.03125-136.570312zm0 0" fill="#59636f"/><path d="m165.792969 142.539062c-17.085938 6.144532-24.917969 18.339844-28.5 27.996094-3.289063 8.863282-8.839844 16.671875-16.015625 22.832032-16.382813 14.066406-38.878906 45.242187-7.703125 97.25v.011718c20.476562 5.019532 45.851562 7.949219 77.1875 7.949219 31.335937 0 56.707031-2.929687 77.183593-7.949219v-.011718c31.175782-52.007813 8.683594-83.183594-7.703124-97.25-7.175782-6.160157-12.722657-13.96875-16.011719-22.832032-3.578125-9.636718-11.386719-21.808594-28.410157-27.960937l-.089843-.035157zm0 0" fill="#e9e9e9"/><path d="m208.640625 344.378906c0 9.871094-8.003906 17.878906-17.878906 17.878906s-17.878907-8.007812-17.878907-17.878906c0-9.875 8.003907-17.882812 17.878907-17.882812s17.878906 8.007812 17.878906 17.882812zm0 0" fill="#eee07d"/><path d="m190.761719 138.617188c-9.984375 0-18.203125 1.488281-24.96875 3.921874 1.882812 12.09375 12.34375 21.351563 24.96875 21.351563s23.085937-9.257813 24.96875-21.351563c-6.765625-2.433593-14.984375-3.921874-24.96875-3.921874zm0 0" fill="#424952"/><path d="m114.429688 135.230469c-4.144532 0-7.5 3.359375-7.5 7.5v13.816406c0 4.140625 3.355468 7.5 7.5 7.5 4.140624 0 7.5-3.359375 7.5-7.5v-13.816406c0-4.140625-3.359376-7.5-7.5-7.5zm0 0"/><path d="m267.09375 135.230469c-4.144531 0-7.5 3.359375-7.5 7.5v13.816406c0 4.140625 3.355469 7.5 7.5 7.5 4.140625 0 7.5-3.359375 7.5-7.5v-13.816406c0-4.140625-3.359375-7.5-7.5-7.5zm0 0"/><path d="m153.425781 192.1875c5.316407 6.082031 13.152344 9.574219 21.492188 9.574219 5.738281 0 11.238281-1.652344 15.84375-4.667969 4.605469 3.015625 10.105469 4.667969 15.84375 4.667969 8.339843 0 16.171875-3.492188 21.492187-9.574219 2.726563-3.121094 2.40625-7.859375-.710937-10.585938-3.121094-2.722656-7.859375-2.40625-10.582031.710938-5.164063 5.90625-15.242188 5.902344-20.398438 0-2.933594-3.355469-8.359375-3.355469-11.292969 0-5.160156 5.90625-15.238281 5.902344-20.394531 0-2.726562-3.117188-7.464844-3.4375-10.582031-.710938-3.121094 2.726563-3.4375 7.464844-.710938 10.585938zm0 0"/><path d="m378.792969 34.1875c-2.566407-12.886719-12.960938-22.8125-25.871094-24.695312-4.984375-.730469-10.023437-1.097657-14.976563-1.097657-27.480468 0-47.269531 11.101563-55.953124 17.101563-24.390626-16.929688-54.964844-25.496094-91.230469-25.496094-36.269531 0-66.84375 8.566406-91.230469 25.496094-8.6875-5.996094-28.476562-17.101563-55.953125-17.101563-18.085937 0-36.835937 5.652344-40.847656 25.789063-5.074219 25.472656-7.300781 74.515625 32.960937 121.1875-5.648437 13.210937-19.097656 51.578125-2.921875 86.96875 7.617188 16.660156 20.632813 30.144531 38.863281 40.347656-4.238281 5.269531-10.039062 13.132812-15.898437 23.113281-15.992187 27.222657-32.105469 69.679688-18.0625 117.339844.960937 3.265625 3.949219 5.382813 7.191406 5.382813.699219 0 1.414063-.097657 2.121094-.308594 3.972656-1.167969 6.246094-5.339844 5.074219-9.3125-11.542969-39.179688-.007813-74.808594 13.214844-99.460938 23.3125 10.769532 48.695312 16.453125 74.101562 19.429688 1.042969.121094 26.152344 2.804687 26.226562 2.1875-.011718.089844-.015624.179687-.027343.269531-.671875 5.601563.554687 11.371094 3.488281 16.199219 4.539062 7.457031 12.882812 12.230468 21.703125 12.230468 8.746094 0 17.15625-4.757812 21.699219-12.230468 2.953125-4.863282 4.148437-10.558594 3.492187-16.199219-.011719-.089844-.015625-.179687-.027343-.269531 1.027343-.050782 2.039062-.121094 3.0625-.179688 14.535156-.855468 29.0625-2.402344 43.394531-5.015625 3.695312-.671875 6.429687-4.21875 6.136719-7.960937-.339844-4.304688-4.472657-7.585938-8.824219-6.792969-16.179688 2.945313-32.613281 4.511719-49.039063 5.167969-.679687.027344-1.363281.050781-2.046875.078125-4.308593-4.269531-10.132812-7.007813-16.582031-7.328125-.84375-.039063-1.6875-.042969-2.53125 0-6.457031.320312-12.285156 3.0625-16.59375 7.335937-.222656-.007812-.445312-.015625-.667969-.023437-9.667969-.363282-19.597656-1.066406-29.316406-2.160156-23.964844-2.695313-47.871094-7.8125-69.949219-17.738282 4.980469-7.667968 9.589844-13.503906 12.5625-17.027344.152344.0625.308594.125.460938.1875 33.011718 13.625 69.414062 16.476563 104.769531 16.476563 35.152344 0 71.769531-2.847656 104.765625-16.476563.15625-.0625.316406-.125.472656-.191406 2.964844 3.515625 7.566406 9.335938 12.566406 17.039063-.222656.101562-14.054687 5.726562-20.945312 7.875-3.863281 1.203125-6.132812 5.535156-4.9375 9.390625 1.214844 3.898437 5.488281 6.148437 9.390625 4.9375 8.144531-2.53125 24.097656-9.175782 24.175781-9.210938 8.996094 16.808594 18.214844 40.6875 17.964844 67.664063-.3125 34.308593-15.683594 66.722656-45.675781 96.335937-8.859375 8.742188-20.640625 13.558594-33.175781 13.558594h-4.296876c9.335938-16.203125 23.523438-47.769531 23.523438-89.949219 0-4.144531-3.359375-7.5-7.5-7.5-4.144531 0-7.5 3.355469-7.5 7.5 0 47.136719-19.753906 80.339844-26.222656 89.949219h-35.109375v-89.949219c0-4.144531-3.359375-7.5-7.5-7.5-4.144531 0-7.5 3.355469-7.5 7.5v89.949219h-35.125c-6.472657-9.558594-26.207031-42.585938-26.207031-89.949219 0-4.144531-3.359376-7.5-7.5-7.5-4.140626 0-7.5 3.355469-7.5 7.5 0 42.179688 14.1875 73.746094 23.523437 89.949219h-4.300781c-12.535156 0-24.3125-4.816406-33.167969-13.558594-12.492187-12.335937-22.570313-25.320312-29.949219-38.589844-2.011718-3.621093-6.578125-4.921874-10.199218-2.910156-3.617188 2.011719-4.921876 6.578125-2.910157 10.199219 8.070313 14.515625 19.011719 28.636719 32.519531 41.976563 11.679688 11.53125 27.203126 17.882812 43.707032 17.882812h129.214844c16.507812 0 32.027343-6.351562 43.710937-17.882812 75.628906-74.675782 49.199219-150.039063 26.710937-188.316407-5.859374-9.980469-11.660156-17.84375-15.894531-23.113281 18.230469-10.199219 31.246094-23.6875 38.859375-40.347656 16.175782-35.390625 2.726563-73.757813-2.921875-86.96875 40.261719-46.675782 38.035157-95.71875 32.960938-121.183594zm-194.679688 302.347656c1.828125-1.566406 4.167969-2.539062 6.648438-2.539062 5.609375 0 10.378906 4.765625 10.378906 10.382812 0 5.65625-4.730469 10.378906-10.378906 10.378906-5.628907 0-10.378907-4.753906-10.378907-10.382812 0-3.058594 1.476563-5.90625 3.730469-7.839844zm148.121094-244.828125c-4.0625-10.601562-9.472656-21.589843-16.675781-32.140625 4.820312-1.46875 10.679687-2.585937 17.367187-2.585937.746094.003906 1.390625.625 1.476563 1.414062.902344 8.601563.953125 20.269531-2.167969 33.3125zm-285.113281-33.3125c.082031-.789062.730468-1.410156 1.542968-1.410156 6.644532 0 12.488282 1.113281 17.300782 2.578125-7.203125 10.554688-12.617188 21.542969-16.679688 32.144531-3.117187-13.042969-3.066406-24.710937-2.164062-33.3125zm-29.679688-21.277343c2.507813-12.589844 15.585938-13.722657 26.132813-13.722657 19.816406 0 35.050781 6.929688 43.496093 11.957031-1.851562 1.664063-3.667968 3.382813-5.433593 5.164063-2.054688 2.074219-6.007813 6.496094-6.039063 6.527344-6.835937-2.65625-16.035156-5.0625-27.019531-5.0625-8.449219.011719-15.488281 6.394531-16.375 14.851562-1.5 14.304688-.960937 35.964844 9.679687 59.148438-1.601562 6.898437-2.675781 13.230469-3.394531 18.671875-27.191406-38.398438-25.1875-76.757813-21.046875-97.535156zm143.792969 115.789062c5.324219 11.101562 16.582031 18.484375 29.527344 18.484375 12.941406 0 24.203125-7.382813 29.523437-18.484375 7.15625 4.101562 13.296875 10.488281 16.914063 20.234375 3.679687 9.914063 9.957031 18.875 18.160156 25.914063 17.332031 14.882812 32.492187 41.625 7.734375 85.007812-23.6875 5.429688-48.082031 7.015625-72.332031 7.015625s-48.640625-1.582031-72.332031-7.015625c-24.757813-43.382812-9.597657-70.125 7.734374-85.007812 8.203126-7.039063 14.484376-16 18.160157-25.914063 3.617187-9.746094 9.757812-16.132813 16.910156-20.234375zm29.527344-6.789062c5.128906 0 10.28125.445312 15.300781 1.515624-3.136719 5.261719-8.910156 8.757813-15.300781 8.757813s-12.167969-3.496094-15.300781-8.757813c1.601562-.34375 11.804687-1.515624 15.300781-1.515624zm144.347656 89.988281c-8.953125 19.585937-27.511719 32.578125-47.019531 40.328125-1.746094.695312-3.546875 1.355468-5.378906 2.003906 8.136718-18.609375 10.332031-36.171875 6.519531-52.390625-4.304688-18.308594-15.480469-30.972656-24.101563-38.371094-6.277344-5.390625-11.074218-12.21875-13.867187-19.75-3.714844-10.007812-12.5-24.945312-32.722657-32.332031-8.832031-3.230469-18.367187-4.476562-27.777343-4.476562-9.28125 0-19.109375.988281-27.78125 4.476562-20.222657 7.386719-29.007813 22.324219-32.71875 32.332031-2.796875 7.53125-7.59375 14.363281-13.871094 19.75-8.617187 7.398438-19.796875 20.0625-24.101563 38.371094-3.8125 16.21875-1.617187 33.78125 6.519532 52.390625-3.855469-1.359375-7.660156-2.867188-11.378906-4.566406-19.902344-9.082032-33.644532-21.6875-40.980469-37.679688-16.527344-36.015625 4.554687-78.304687 4.765625-78.71875.542968-1.0625.832031-2.289062.824218-3.480468-.007812-.730469.101563-73.609376 51.941407-113.164063.054687-.042969.105469-.09375.160156-.140625 22.46875-17.058594 51.527344-25.6875 86.621094-25.6875 35.085937 0 64.136719 8.625 86.605469 25.675781.058593.046875.113281.101563.175781.148438 48.394531 36.929687 51.703125 102.898437 51.925781 112.089843.035156 1.546876.125 3.152344.835938 4.558594.214843.421875 21.332031 42.480469 4.804687 78.632813zm7.921875-101.449219c-.71875-5.445312-1.789062-11.773438-3.390625-18.671875 10.640625-23.183594 11.175781-44.847656 9.679687-59.152344-.886718-8.457031-7.925781-14.839843-16.460937-14.847656-10.917969 0-20.101563 2.402344-26.933594 5.0625-.03125-.039063-9.640625-10.050781-11.503906-11.722656 8.390625-5.023438 23.554687-11.929688 43.527344-11.929688 10.605469 0 23.617187 1.085938 26.136719 13.722657 4.136718 20.777343 6.140624 59.136718-21.054688 97.539062zm0 0"/></svg>